inDegrees=no
num_controls=7
num_derivatives=13
num_iterations=145
num_multipliers=7
num_parameters=0
num_slacks=7
num_states=26
objective=5.535298
objective_accelerations=0.284955
objective_balance=0.016021
objective_effort=0.316313
objective_height=4.822689
objective_ligament=0.095320
solver_duration=1257.371526
status=Solve_Succeeded
success=true
DataType=double
version=3
OpenSimVersion=4.4-2022-07-23-0e9fedc
endheader
time	/jointset/ground_pelvis/pelvis_tilt/value	/jointset/ground_pelvis/pelvis_tx/value	/jointset/ground_pelvis/pelvis_ty/value	/jointset/hip_r/hip_flexion_r/value	/jointset/hip_r/hip_adduction_r/value	/jointset/hip_r/hip_rotation_r/value	/jointset/back/lumbar_extension/value	/jointset/patellofemoral_r/patellar_flexion_r/value	/jointset/knee_r/knee_flexion_r/value	/jointset/knee_r/knee_adduction_r/value	/jointset/knee_r/knee_rotation_r/value	/jointset/ankle_r/ankle_angle_r/value	/jointset/subtalar_r/subtalar_angle_r/value	/jointset/ground_pelvis/pelvis_tilt/speed	/jointset/ground_pelvis/pelvis_tx/speed	/jointset/ground_pelvis/pelvis_ty/speed	/jointset/hip_r/hip_flexion_r/speed	/jointset/hip_r/hip_adduction_r/speed	/jointset/hip_r/hip_rotation_r/speed	/jointset/back/lumbar_extension/speed	/jointset/patellofemoral_r/patellar_flexion_r/speed	/jointset/knee_r/knee_flexion_r/speed	/jointset/knee_r/knee_adduction_r/speed	/jointset/knee_r/knee_rotation_r/speed	/jointset/ankle_r/ankle_angle_r/speed	/jointset/subtalar_r/subtalar_angle_r/speed	/forceset/tau_hip_flexion_r	/forceset/tau_hip_adduction_r	/forceset/tau_hip_rotation_r	/forceset/tau_knee_flexion_r	/forceset/tau_ankle_angle_r	/forceset/tau_subtalar_angle_r	/forceset/tau_lumbar_extension	lambda_cid13_p0	lambda_cid14_p0	lambda_cid14_p1	lambda_cid14_p2	lambda_cid14_p3	lambda_cid14_p4	lambda_cid14_p5	/jointset/ground_pelvis/pelvis_tilt/accel	/jointset/ground_pelvis/pelvis_tx/accel	/jointset/ground_pelvis/pelvis_ty/accel	/jointset/hip_r/hip_flexion_r/accel	/jointset/hip_r/hip_adduction_r/accel	/jointset/hip_r/hip_rotation_r/accel	/jointset/back/lumbar_extension/accel	/jointset/patellofemoral_r/patellar_flexion_r/accel	/jointset/knee_r/knee_flexion_r/accel	/jointset/knee_r/knee_adduction_r/accel	/jointset/knee_r/knee_rotation_r/accel	/jointset/ankle_r/ankle_angle_r/accel	/jointset/subtalar_r/subtalar_angle_r/accel	gamma_cid13_p0	gamma_cid14_p0	gamma_cid14_p1	gamma_cid14_p2	gamma_cid14_p3	gamma_cid14_p4	gamma_cid14_p5
1	-0.1745682693772408	0.009065579917093291	0.7793181433998042	1.010184746437714	-0.2323707262276045	-0.08712111172135792	-0.785391327745969	1.047574886220959	1.04757488622097	-0.03033977062636017	0.1745264967706764	0.3023277992898016	0.1263102172707051	0.07571558476129014	0.008210476108167452	0.01309683925190775	-0.1042427318207472	-0.0004013772684835783	-0.005054662986743605	0.00113977366432608	-0.01408683313030934	-0.01408683313030787	0.0001632529266883448	-1.432252817010019e-05	0.01471316923935951	0.005201096658081616	-0.2796442468461409	0.01727014128501921	0.02081645081422785	-0.3034116043298216	-0.03999275266603694	0.004628945499751395	0.3165547498444896	-4.181853346804301	-59.86066139229417	-6.544162147270648	-0.7354513936426698	7.886156346767115	-715.3574649297822	67.29478251125587	1.254641719322638	0.154845619355465	0.8646324780882657	-3.443556023630971	0.1065722374529517	-0.6058196859565751	0.08819708149557029	-2.955511869214959	-2.955511869214927	0.2201456374633167	0.001088293999887619	-0.8721235139958817	-0.161522819190761	4.425302682240659e-10	-8.778174436874777e-10	1.230827619676917e-09	-8.919346439947205e-12	1.351119582153896e-09	-6.827917225816894e-09	6.449419630914278e-10
1.01	-0.1737494837565663	0.00915566514241568	0.7794922427720768	1.008971071910465	-0.2323694542022781	-0.08720170108145728	-0.7853725988884691	1.047286372399143	1.047286372399243	-0.03032688904755282	0.1745263101806268	0.302431609226771	0.1263541884015998	0.08799727063596278	0.009833484747167264	0.02172583204435124	-0.1384916060030116	0.0006519628490122814	-0.011062948513671	0.002823610978153719	-0.04363056658481261	-0.0436305665848078	0.002424542617920533	-2.149405110604505e-05	0.006076980799842592	0.003597957844321496	-0.2806755496280749	0.01736665996881652	0.02081703088473045	-0.3033354252924933	-0.04027143544367957	0.00468143499789897	0.317927862922905	-4.19259034048561	-59.99675628224791	-6.53509383697215	-0.7484353413956839	7.608686794193956	-716.3590790718983	67.35631859860916	1.20829196052538	0.1700666487714747	0.8624501436047322	-3.41546796396372	0.1041425759172379	-0.5982942018340862	0.2411190074414179	-2.955999517143206	-2.955999517142478	0.2308431684564294	-0.001394429202046633	-0.8551424991640045	-0.1589845742735003	6.458523773957999e-10	-2.190112069462128e-09	2.602857504225414e-09	1.025003948848625e-09	3.95484170000165e-09	-1.027633905423423e-08	1.110686615699391e-09
1.02	-0.1728092092893586	0.009262788086650124	0.7797527155650305	1.007414925671656	-0.2323577632404167	-0.08734236553985142	-0.7853305032667673	1.046701982156154	1.046701982156171	-0.03029105006494728	0.1745260969645849	0.3024499020812867	0.1263822731119905	0.100013354070036	0.01161801989057858	0.03037152338812375	-0.1727370741228673	0.001682410047207249	-0.01706968267152063	0.005813126336528448	-0.07326211738233288	-0.07326211738232488	0.00475473364923605	-1.964772450545611e-05	-0.002390247249057343	0.002023812558381194	-0.2817068524102499	0.01746317865289863	0.02081761095391199	-0.3032592462553241	-0.04055011822123177	0.00473392449654722	0.3193009760010678	-4.214354121351439	-60.14110263809552	-6.524910512981016	-0.7645208646923571	7.333120505758612	-717.4918077270922	67.4355323237601	1.201521231203662	0.187150920236967	0.8679721883539828	-3.442874811148961	0.1019936535928617	-0.6055094121407696	0.3493326904023074	-2.973075337818325	-2.973075337818322	0.2339259054800729	0.002891863907072702	-0.8383314358736182	-0.1557241136271119	9.076744719767928e-10	-2.22289765997821e-09	4.517083820868589e-09	2.347634710675217e-09	4.156705815517353e-09	-1.265808791459731e-08	2.76320604790702e-09
1.03	-0.1717500544137333	0.009388528389179277	0.7800997180715088	1.005516332032857	-0.2323358753516157	-0.08754304549733101	-0.7852522846539977	1.045820792707106	1.045820792707177	-0.03023151637587819	0.1745259226742861	0.3023842772057818	0.1263947379150271	0.1117769884004459	0.01355355317613299	0.03903057272371491	-0.2069809937963382	0.002692070826983123	-0.02306260818595202	0.01002015915244674	-0.1029949605499669	-0.1029949605499532	0.007167492183817549	-1.569605419704352e-05	-0.01071554250521974	0.0004717104927260948	-0.2823613639946074	0.01756179640045762	0.02081905759605684	-0.303122090606743	-0.04071983645413108	0.004743727425524915	0.320340870136295	-4.247260391516011	-60.23552628449677	-6.528191678408274	-0.7742714718059034	7.102494850187822	-718.3022136684417	67.46661002876171	1.157690013475662	0.2002822825738514	0.8651075081921431	-3.415051524314968	0.09998897031511816	-0.5956293359551327	0.4848230140688058	-2.976267261282737	-2.976267261281549	0.2472751316252092	-0.0009251687935225013	-0.8267512781695763	-0.1545673613072398	1.170093505184411e-09	-2.242627035848788e-09	6.436842754165795e-09	3.673211467058321e-09	4.334061175907205e-09	-1.502895235691901e-08	4.427835426845265e-09
